<svg width="393" height="551" viewBox="0 0 393 551" fill="none" xmlns="http://www.w3.org/2000/svg">
<path d="M253.243 150.418L366.309 219.509L350.405 197.436C312.416 144.714 323.297 71.3324 374.95 31.9018L391.884 18.9748L357.687 35.3896C258.884 82.8152 141.629 69.3036 56.2035 0.648648L95.167 93.368C149.11 221.733 132.419 368.914 51.101 481.94L2.11636 550.025L24.1819 544.5C83.5228 529.641 137.454 498.308 179.753 454.116C230.808 400.775 262.142 331.614 268.577 258.058L273.974 196.373L258.215 210.053C231.747 233.029 191.122 209.844 197.443 175.369C202.135 149.776 231.04 136.851 253.243 150.418Z" fill="#FFCD00" stroke="#FFCD00"/>
</svg>
